<svg width="140" height="140" viewBox="0 0 120 120" xmlns="http://www.w3.org/2000/svg">

  <!-- Barbell -->
  <rect x="10" y="18" width="100" height="4" rx="2" fill="#1e3a8a"></rect>
  <rect x="5" y="12" width="6" height="16" rx="2" fill="#1e40af"></rect>
  <rect x="109" y="12" width="6" height="16" rx="2" fill="#1e40af"></rect>

  <!-- Body silhouette -->
  <g fill="#3b82f6">

    <!-- Head -->
    <circle cx="60" cy="38" r="8"></circle>

    <!-- Torso -->
    <path d="M50 45 Q60 40 70 45 L72 65 Q60 72 48 65 Z"></path>

    <!-- Arms -->
    <path d="M50 48 Q35 40 20 22 L24 20 Q40 35 52 42 Z"></path>
    <path d="M70 48 Q85 40 100 22 L96 20 Q80 35 68 42 Z"></path>

    <!-- Legs -->
    <path d="M48 65 L40 95 Q45 98 50 92 L58 70 Z"></path>
    <path d="M72 65 L80 95 Q75 98 70 92 L62 70 Z"></path>

  </g>

</svg>